<svg width="181" height="23" viewBox="0 0 181 23" fill="none" xmlns="http://www.w3.org/2000/svg">
<g clip-path="url(#clip0_42_154)">
<path d="M7.8283 17.4242C6.2133 17.4242 4.82087 17.0597 3.65102 16.3323C2.48118 15.605 1.5805 14.5863 0.947265 13.2782C0.315755 11.97 0 10.4474 0 8.71391C0 6.98042 0.315755 5.45781 0.947265 4.14965C1.57877 2.84149 2.47945 1.82284 3.65102 1.09371C4.82087 0.364569 6.2133 0 7.8283 0C9.68315 0 11.2395 0.477156 12.4991 1.42968C13.7586 2.38221 14.6472 3.67071 15.1631 5.29697L12.0901 6.1798C11.7916 5.16472 11.2861 4.3784 10.5769 3.81546C9.86605 3.25431 8.94984 2.97374 7.8283 2.97374C6.8034 2.97374 5.94931 3.20964 5.26603 3.68143C4.58103 4.15322 4.06685 4.81981 3.72349 5.67941C3.38013 6.53901 3.20759 7.54872 3.20759 8.71033C3.20759 9.87195 3.38013 10.8835 3.72349 11.7413C4.06685 12.6009 4.58103 13.2674 5.26603 13.7392C5.94931 14.211 6.80512 14.4469 7.8283 14.4469C8.94984 14.4469 9.86605 14.1646 10.5769 13.5998C11.2878 13.0351 11.7916 12.2488 12.0901 11.2409L15.1631 12.1237C14.6472 13.75 13.7586 15.0402 12.4991 15.9928C11.2395 16.9453 9.68142 17.4225 7.8283 17.4225V17.4242Z" fill="white"/>
<path d="M16.5538 17.0758V0H19.6044V17.0758H16.5538Z" fill="white"/>
<path d="M27.1187 17.4242C25.9005 17.4242 24.8307 17.1419 23.9111 16.5754C22.9914 16.0106 22.2754 15.2297 21.7629 14.2343C21.2505 13.2388 20.9951 12.0951 20.9951 10.8012C20.9951 9.50738 21.2574 8.3404 21.7802 7.34499C22.303 6.34957 23.0242 5.57397 23.9439 5.01639C24.8635 4.45882 25.9212 4.18003 27.1187 4.18003C28.3161 4.18003 29.4083 4.46239 30.3314 5.0289C31.2545 5.59363 31.9741 6.37459 32.49 7.37001C33.0059 8.36542 33.263 9.50917 33.263 10.803C33.263 12.0969 33.0024 13.2514 32.4831 14.2468C31.9637 15.2422 31.2425 16.0196 30.3176 16.5807C29.3928 17.1419 28.3265 17.4225 27.1152 17.4225L27.1187 17.4242ZM27.1187 14.4737C28.0987 14.4737 28.8286 14.1306 29.3117 13.4462C29.7948 12.7617 30.0347 11.8807 30.0347 10.803C30.0347 9.72541 29.7896 8.7979 29.2996 8.13131C28.8096 7.46472 28.0832 7.13232 27.1187 7.13232C26.4527 7.13232 25.9074 7.2878 25.4812 7.59697C25.0551 7.90614 24.7393 8.33683 24.534 8.88547C24.3286 9.4359 24.2251 10.0739 24.2251 10.803C24.2251 11.9253 24.4701 12.8189 24.9602 13.4801C25.4502 14.1431 26.1697 14.4737 27.1187 14.4737Z" fill="white"/>
<path d="M45.555 4.5303V17.0758H42.8633V15.7837C42.5838 16.1089 42.2611 16.3949 41.8936 16.6469C41.112 17.1812 40.1267 17.4475 38.9379 17.4475C37.9889 17.4475 37.2142 17.2813 36.6172 16.9489C36.0185 16.6147 35.5526 16.1929 35.2196 15.6818C34.8883 15.1707 34.6502 14.6382 34.5087 14.0842C34.3655 13.5319 34.2792 13.0262 34.2499 12.5687C34.2206 12.1112 34.205 11.7788 34.205 11.5697V4.5303H37.3005V10.4545C37.3005 10.7423 37.316 11.1068 37.3453 11.5518C37.3747 11.9986 37.4696 12.4454 37.6266 12.8939C37.7836 13.3425 38.039 13.7196 38.3944 14.0216C38.7498 14.3236 39.2519 14.4737 39.9024 14.4737C40.1647 14.4737 40.4442 14.4308 40.7445 14.3469C41.043 14.2611 41.3225 14.0967 41.5847 13.8518C41.847 13.6088 42.061 13.2478 42.2301 12.7724C42.3974 12.2953 42.482 11.6716 42.482 10.896V4.5303H45.555Z" fill="white"/>
<path d="M55.2002 0.348488V4.93777C54.4462 4.4338 53.5351 4.18182 52.4636 4.18182C51.3041 4.18182 50.2948 4.46954 49.4355 5.04142C48.5762 5.61508 47.9085 6.39961 47.434 7.39324C46.9578 8.38866 46.7214 9.52526 46.7214 10.803C46.7214 12.0808 46.9543 13.1852 47.4219 14.1842C47.8895 15.1832 48.5417 15.9731 49.3785 16.5539C50.2171 17.1347 51.192 17.4242 52.3066 17.4242C53.511 17.4242 54.5152 17.1347 55.3227 16.5539C55.4124 16.4896 55.4987 16.4235 55.5815 16.3538V17.0758H58.2732V0.348488H55.2002ZM55.3123 12.801C55.1329 13.3747 54.8396 13.8197 54.4324 14.1378C54.0234 14.4541 53.4799 14.6131 52.8001 14.6131C52.1203 14.6131 51.6044 14.4434 51.1851 14.102C50.7658 13.7625 50.4552 13.3032 50.2533 12.726C50.0515 12.1487 49.9514 11.5089 49.9514 10.803C49.9514 10.0971 50.0566 9.46986 50.2654 8.89262C50.4742 8.31539 50.7986 7.85432 51.2351 7.50941C51.6734 7.16628 52.2324 6.99293 52.9122 6.99293C53.5472 6.99293 54.0614 7.15198 54.4548 7.47009C54.8465 7.78641 55.1329 8.23139 55.3123 8.80505C55.4918 9.37871 55.5815 10.0435 55.5815 10.803C55.5815 11.5626 55.4918 12.2291 55.3123 12.801Z" fill="white"/>
<path d="M63.5892 17.0758V0.348488H66.6398V17.0758H63.5892Z" fill="white"/>
<path d="M80.3225 10.0364V17.0758H77.2271V11.1515C77.2271 10.8656 77.2116 10.4992 77.1822 10.0542C77.1512 9.60924 77.058 9.16247 76.901 8.71212C76.744 8.26356 76.4886 7.88827 76.1332 7.58625C75.7777 7.28423 75.2756 7.13232 74.6251 7.13232C74.3629 7.13232 74.0833 7.17521 73.7831 7.26099C73.4846 7.34499 73.2034 7.5094 72.9428 7.75423C72.6806 7.99728 72.4666 8.35649 72.2975 8.82828C72.1301 9.30186 72.0456 9.92914 72.0456 10.7101V17.0758H68.9502V4.5303H71.6643V5.82416C71.9421 5.49891 72.2665 5.21119 72.634 4.96099C73.4156 4.42665 74.4008 4.15858 75.5896 4.15858C76.5386 4.15858 77.3134 4.32478 77.9104 4.65897C78.5091 4.99137 78.975 5.41313 79.308 5.92424C79.6392 6.43535 79.8774 6.96791 80.0188 7.52191C80.1621 8.07591 80.2466 8.58166 80.2777 9.03737C80.307 9.49487 80.3225 9.82727 80.3225 10.0364Z" fill="white"/>
<path d="M85.975 6.9697V11.5697C85.975 12.0576 85.9802 12.4972 85.9906 12.8886C86.0026 13.28 86.0786 13.5909 86.2218 13.8232C86.4909 14.2646 86.9206 14.5041 87.5107 14.5434C88.1008 14.5828 88.7564 14.5524 89.4742 14.4505V17.0758C88.6357 17.2384 87.8161 17.3099 87.012 17.2902C86.208 17.2723 85.4902 17.124 84.8587 16.8488C84.2272 16.5754 83.7458 16.1322 83.4179 15.5192C83.1177 14.9473 82.9607 14.3629 82.9469 13.7714C82.9314 13.1781 82.9245 12.5061 82.9245 11.7556V6.9697H80.8608V4.5303H82.9245V1.04546H85.975V4.5303H89.4742V6.9697H85.975Z" fill="white"/>
<path d="M101.575 11.6859C101.702 10.1686 101.552 8.84794 101.126 7.72564C100.7 6.60155 100.043 5.73123 99.1522 5.11111C98.2619 4.49277 97.1817 4.18182 95.9101 4.18182C94.7144 4.18182 93.6567 4.46239 92.737 5.02354C91.8174 5.58648 91.0961 6.3728 90.5716 7.38788C90.0488 8.40295 89.7865 9.59495 89.7865 10.9657C89.7865 12.2202 90.054 13.3336 90.5889 14.3057C91.1237 15.2779 91.864 16.041 92.8095 16.5932C93.755 17.1472 94.849 17.4242 96.0896 17.4242C97.2559 17.4242 98.3309 17.1061 99.3144 16.4717C100.298 15.8373 101.017 14.9473 101.473 13.8L98.4223 12.8939C98.198 13.405 97.8737 13.7964 97.4475 14.0681C97.0213 14.3379 96.5088 14.4737 95.9101 14.4737C94.9611 14.4737 94.2416 14.1538 93.7516 13.5158C93.3927 13.0476 93.1649 12.4382 93.07 11.6859H101.575ZM93.1494 9.33939C93.2702 8.75858 93.4703 8.28143 93.7516 7.90435C94.2416 7.25027 95.006 6.92323 96.0447 6.92323C96.935 6.92323 97.5769 7.20381 97.9685 7.76496C98.2274 8.13489 98.3999 8.66029 98.4879 9.33939H93.1494Z" fill="white"/>
<path d="M103.292 17.0758V0H106.342V17.0758H103.292Z" fill="white"/>
<path d="M108.899 17.0758V0H111.95V17.0758H108.899Z" fill="white"/>
<path d="M114.505 2.78788V0H117.556V2.78788H114.505ZM114.505 17.0758V4.5303H117.556V17.0758H114.505Z" fill="white"/>
<path d="M128.076 4.5303V5.2237C128.007 5.16472 127.934 5.10754 127.862 5.05392C127.077 4.47311 126.109 4.18182 124.958 4.18182C123.807 4.18182 122.789 4.46954 121.93 5.04141C121.069 5.61507 120.403 6.39961 119.928 7.39324C119.452 8.38865 119.216 9.52525 119.216 10.803C119.216 12.0808 119.449 13.1852 119.916 14.1842C120.384 15.1832 121.036 15.9731 121.873 16.5539C122.711 17.1347 123.686 17.4242 124.801 17.4242C125.915 17.4242 126.909 17.1633 127.694 16.6379V17.8889C127.708 18.3535 127.594 18.7431 127.353 19.0559C127.109 19.3704 126.785 19.6063 126.381 19.7653C125.978 19.9244 125.548 20.003 125.092 20.003C124.666 20.003 124.271 19.9065 123.909 19.7135C123.546 19.5187 123.267 19.2364 123.074 18.8646L120.247 20.2818C120.553 20.8233 120.951 21.2987 121.441 21.7043C121.931 22.1118 122.487 22.4299 123.106 22.6569C123.728 22.8856 124.382 23 125.07 23C125.959 23 126.785 22.8785 127.548 22.6336C128.31 22.3906 128.956 22.0207 129.482 21.5256C130.01 21.0288 130.371 20.398 130.566 19.6313C130.633 19.3597 130.679 19.088 130.705 18.8128C130.731 18.5376 130.745 18.2445 130.745 17.9354V4.5303H128.076ZM126.927 14.1378C126.518 14.4541 125.974 14.6131 125.294 14.6131C124.614 14.6131 124.097 14.4434 123.679 14.102C123.26 13.7625 122.949 13.3032 122.748 12.726C122.546 12.1487 122.446 11.5089 122.446 10.803C122.446 10.0971 122.549 9.46985 122.76 8.89262C122.968 8.31538 123.293 7.85431 123.729 7.5094C124.168 7.16628 124.725 6.99293 125.406 6.99293C126.041 6.99293 126.556 7.15198 126.949 7.47008C127.341 7.7864 127.627 8.23139 127.807 8.80505C127.986 9.37871 128.076 10.0435 128.076 10.803C128.076 11.5625 127.986 12.2291 127.807 12.801C127.627 13.3747 127.334 13.8197 126.927 14.1378Z" fill="white"/>
<path d="M143.967 11.6859C144.095 10.1686 143.945 8.84794 143.518 7.72564C143.092 6.60155 142.435 5.73123 141.544 5.11111C140.654 4.49277 139.574 4.18182 138.304 4.18182C137.107 4.18182 136.049 4.46239 135.129 5.02354C134.21 5.58648 133.488 6.3728 132.966 7.38788C132.441 8.40295 132.181 9.59495 132.181 10.9657C132.181 12.2202 132.448 13.3336 132.981 14.3057C133.516 15.2779 134.256 16.041 135.202 16.5932C136.149 17.1472 137.241 17.4242 138.484 17.4242C139.65 17.4242 140.725 17.1061 141.707 16.4717C142.69 15.8373 143.41 14.9473 143.867 13.8L140.816 12.8939C140.592 13.405 140.266 13.7964 139.84 14.0681C139.414 14.3379 138.901 14.4737 138.304 14.4737C137.353 14.4737 136.634 14.1538 136.144 13.5158C135.787 13.0476 135.559 12.4382 135.464 11.6859H143.967ZM135.543 9.33939C135.664 8.75858 135.864 8.28143 136.144 7.90435C136.634 7.25027 137.398 6.92323 138.439 6.92323C139.327 6.92323 139.969 7.20381 140.361 7.76496C140.62 8.13489 140.794 8.66029 140.882 9.33939H135.543Z" fill="white"/>
<path d="M156.471 10.0364V17.0758H153.377V11.1515C153.377 10.8656 153.362 10.4992 153.331 10.0542C153.302 9.60924 153.208 9.16247 153.051 8.71212C152.894 8.26356 152.639 7.88827 152.284 7.58625C151.928 7.28423 151.424 7.13232 150.776 7.13232C150.513 7.13232 150.232 7.17521 149.934 7.26099C149.635 7.34499 149.354 7.5094 149.093 7.75423C148.831 7.99728 148.615 8.35649 148.448 8.82828C148.279 9.30186 148.196 9.92914 148.196 10.7101V17.0758H145.099V4.5303H147.815V5.82416C148.092 5.49891 148.417 5.21119 148.784 4.96099C149.566 4.42665 150.549 4.15858 151.74 4.15858C152.689 4.15858 153.462 4.32478 154.061 4.65897C154.659 4.99137 155.124 5.41313 155.457 5.92424C155.79 6.43535 156.028 6.96791 156.169 7.52191C156.311 8.07591 156.397 8.58166 156.428 9.03737C156.457 9.49487 156.471 9.82727 156.471 10.0364Z" fill="white"/>
<path d="M163.471 17.4242C162.215 17.4242 161.138 17.1347 160.241 16.5521C159.344 15.9713 158.656 15.1814 158.178 14.1824C157.7 13.1834 157.46 12.0558 157.46 10.8012C157.46 9.5467 157.708 8.3958 158.205 7.3986C158.702 6.39961 159.403 5.61329 160.309 5.03963C161.213 4.46597 162.282 4.18003 163.516 4.18003C164.945 4.18003 166.142 4.55354 167.11 5.30054C168.078 6.04755 168.698 7.06799 168.967 8.36185L165.916 9.19821C165.737 8.54771 165.424 8.04017 164.979 7.67739C164.534 7.31282 164.032 7.13232 163.471 7.13232C162.828 7.13232 162.301 7.29316 161.889 7.61484C161.478 7.93652 161.175 8.37436 160.981 8.92657C160.787 9.48058 160.69 10.1061 160.69 10.803C160.69 11.8949 160.923 12.7796 161.39 13.4569C161.858 14.1342 162.552 14.4737 163.471 14.4737C164.16 14.4737 164.683 14.3111 165.041 13.9859C165.4 13.6606 165.669 13.196 165.849 12.5919L168.967 13.2657C168.623 14.597 167.973 15.6246 167.015 16.3448C166.058 17.065 164.878 17.4242 163.471 17.4242Z" fill="white"/>
<path d="M180.955 11.6859C181.081 10.1686 180.933 8.84794 180.507 7.72564C180.08 6.60155 179.421 5.73123 178.533 5.11111C177.642 4.49277 176.562 4.18182 175.291 4.18182C174.095 4.18182 173.037 4.46239 172.117 5.02354C171.198 5.58648 170.477 6.3728 169.952 7.38788C169.429 8.40295 169.167 9.59495 169.167 10.9657C169.167 12.2202 169.434 13.3336 169.969 14.3057C170.504 15.2779 171.244 16.041 172.19 16.5932C173.135 17.1472 174.229 17.4242 175.47 17.4242C176.636 17.4242 177.711 17.1061 178.695 16.4717C179.678 15.8373 180.398 14.9473 180.853 13.8L177.803 12.8939C177.578 13.405 177.254 13.7964 176.828 14.0681C176.402 14.3379 175.889 14.4737 175.291 14.4737C174.342 14.4737 173.622 14.1538 173.132 13.5158C172.773 13.0476 172.545 12.4382 172.45 11.6859H180.955ZM172.53 9.33939C172.651 8.75858 172.851 8.28143 173.132 7.90435C173.622 7.25027 174.386 6.92323 175.425 6.92323C176.315 6.92323 176.957 7.20381 177.349 7.76496C177.608 8.13489 177.78 8.66029 177.868 9.33939H172.53Z" fill="white"/>
</g>
<defs>
<clipPath id="clip0_42_154">
<rect width="181" height="23" fill="white"/>
</clipPath>
</defs>
</svg>
